<?xml version="1.0" encoding="UTF-8"?>
<svg width="871" height="226" version="1.1" viewBox="0 0 951 247" xmlns="http://www.w3.org/2000/svg" xmlns:xlink="http://www.w3.org/1999/xlink">
    <defs>
        <linearGradient id="a" x1="100%" x2="0%" y1="50%" y2="50%">
            <stop stop-color="#0178C9" offset="0"/>
            <stop stop-color="#00477B" offset="1"/>
        </linearGradient>
        <linearGradient id="h" x1="52.056%" x2="37.415%" y1="33.149%" y2="-3.6521%">
            <stop stop-color="#0067AD" offset="0"/>
            <stop stop-color="#004377" offset="1"/>
        </linearGradient>
        <linearGradient id="g" x1="50%" x2="21.419%" y1="52.582%" y2="48.19%">
            <stop stop-color="#00528E" offset="0"/>
            <stop stop-color="#0164AB" offset="1"/>
        </linearGradient>
        <linearGradient id="f" x1="50%" x2="50%" y1="100%" y2="3.0616e-15%">
            <stop stop-color="#0060A4" offset="0"/>
            <stop stop-color="#00477C" offset="1"/>
        </linearGradient>
        <linearGradient id="e" x1="50%" x2="21.419%" y1="55.139%" y2="46.399%">
            <stop stop-color="#00528E" offset="0"/>
            <stop stop-color="#0164AB" offset="1"/>
        </linearGradient>
        <linearGradient id="d" x1="87.301%" x2="-5.7816%" y1="22.157%" y2="86.193%">
            <stop stop-color="#0278C9" offset="0"/>
            <stop stop-color="#02325A" offset="1"/>
        </linearGradient>
        <polygon id="b" points="0.23733 0.47135 124.68 0.47135 124.68 14.3 0.23733 14.3"/>
    </defs>
    <g fill="none" fill-rule="evenodd">
        <polygon points="951 206.74 780.66 246.42 610 190.35 12 0 35.057 0 951 0" fill="#02325A"/>
        <polygon points="16.581 1.4594 610 190.35 467.57 241" fill="url(#a)"/>
        <polygon points="916.88 48.081 932.93 0 951 -3.8654e-12 951 68.008" fill="url(#h)"/>
        <polygon points="933 3.6376e-12 916.85 48.198 735.11 65.037 646.83 3.6376e-12" fill="url(#g)"/>
        <polygon points="735.09 65.007 646.83 0 1.632e-13 0" fill="url(#f)"/>
        <polygon points="706 209.53 780.66 246.36 780.55 246.42 221.11 67.048 12 0 213.52 58.581" fill="url(#e)"/>
        <polygon points="735.12 65.007 706.07 209.59 12 0" fill="url(#a)"/>
        <g transform="translate(706 47)">
            <g transform="translate(0 .425)" fill="url(#d)">
                <polygon points="210.91 0.575 29.091 17.582 0 162.14 74.545 199 245 159.32 245 20.25"/>
            </g>
            <g transform="translate(79 122)">
                <mask id="c" fill="white">
                    <use xlink:href="#b"/>
                </mask>
                <path d="m9.1106 3.3308c0-1.6881-1.0574-2.8594-2.8868-2.8594h-3.826l-2.1605 10.831h1.9949l0.83108-4.199h2.0709c2.5861 0 3.9764-1.8394 3.9764-3.7723zm-2.0101 0.1666c0 0.8228-0.58953 1.8258-1.8902 1.8258h-1.7838l0.61993-3.0719h1.8446c0.89189 0 1.2095 0.5627 1.2095 1.2461zm5.3361 0.1224h-1.875l-1.527 7.6823h1.875l1.527-7.6823zm0.63514-3.1195h-1.9358l-0.30236 1.5674h1.9206l0.31757-1.5674zm6.7872 5.4009c0-1.8241-1.3463-2.6163-2.6605-2.6163-0.99831 0-1.8294 0.3349-2.4189 0.9129-0.69595 0.6698-1.0743 1.4756-1.4054 3.1348-0.076014 0.3638-0.16723 0.9571-0.16723 1.445 0 1.8258 1.3463 2.6163 2.6757 2.6163 0.99831 0 1.8142-0.3349 2.4189-0.9129 0.68074-0.6698 1.0726-1.4756 1.4054-3.1484 0.060811-0.3502 0.15203-0.9435 0.15203-1.4314zm-1.8598 0.2142c0 0.1666-0.030405 0.5474-0.16554 1.2172-0.18243 0.9877-0.42399 1.6116-0.80236 1.9771-0.24155 0.2431-0.57432 0.3961-0.96622 0.3961-0.58953 0-0.99831-0.3808-0.99831-1.1407 0-0.1836 0.030405-0.5491 0.16554-1.2325 0.19764-0.9741 0.42399-1.598 0.80236-1.9635 0.24155-0.2431 0.58953-0.3944 0.96622-0.3944 0.58953 0 0.99831 0.3638 0.99831 1.1407zm9.9324-0.6392c0-1.5674-1.0895-2.1913-2.0101-2.1913-0.81757 0-1.5726 0.3043-2.0726 0.8517l0.13682-0.7599h-1.799l-1.5726 7.9254h1.875l0.96791-4.8076c0.24155-1.2461 1.0574-1.5198 1.6014-1.5198 0.4848 0 0.9375 0.3043 0.9375 0.9877 0 0.153-0.030405 0.3349-0.060811 0.5185l-0.96622 4.8212h1.8733l0.98311-4.9436c0.060811-0.2584 0.10642-0.5933 0.10642-0.8823zm7.9206 0.6392c0-1.7204-1.1334-2.8305-2.7956-2.8305-2.7213 0-4.0068 2.6622-4.0068 5.3244 0 2.0859 1.5574 2.7846 2.9172 2.7846 1.1791 0 2.2534-0.3961 3.0693-1.156l-0.98311-1.2478c-0.54392 0.5321-1.1182 0.8058-1.8733 0.8058-0.90709 0-1.3463-0.5474-1.3463-1.3226 0-0.1836 0.030405-0.3808 0.060811-0.5627h4.7162c0.13682-0.6086 0.24155-1.2631 0.24155-1.7952zm-1.7838 0c0 0.1666-0.015203 0.3655-0.045608 0.5321h-2.8868c0.34797-1.2937 1.0135-1.8105 1.8142-1.8105 0.66554 0 1.1182 0.442 1.1182 1.2784zm9.6149 0c0-1.7204-1.1334-2.8305-2.7973-2.8305-2.7213 0-4.0051 2.6622-4.0051 5.3244 0 2.0859 1.5574 2.7846 2.9172 2.7846 1.1791 0 2.2517-0.3961 3.0693-1.156l-0.98311-1.2478c-0.54392 0.5321-1.1182 0.8058-1.875 0.8058-0.90709 0-1.3446-0.5474-1.3446-1.3226 0-0.1836 0.030406-0.3808 0.060811-0.5627h4.7162c0.13514-0.6086 0.24155-1.2631 0.24155-1.7952zm-1.7838 0c0 0.1666-0.015203 0.3655-0.045608 0.5321h-2.8868c0.34797-1.2937 1.0118-1.8105 1.8142-1.8105 0.66385 0 1.1182 0.442 1.1182 1.2784zm9.4324-2.0842c-0.4223-0.5032-0.9223-0.7463-1.6774-0.7463-0.81588 0-1.5574 0.3349-1.9949 0.867l0.16554-0.7752h-1.8142l-1.5726 7.9254h1.875l0.9527-4.7923c0.18074-0.9129 0.84628-1.5215 1.5878-1.5215 0.40709 0 0.66385 0.2295 0.86149 0.4879l1.6166-1.445zm2.9324-0.4114h-1.8733l-1.527 7.6823h1.875l1.5253-7.6823zm0.63514-3.1195h-1.9341l-0.30236 1.5674h1.9189l0.31757-1.5674zm7.1503 4.9759c0-1.5674-1.0878-2.1913-2.0101-2.1913-0.81588 0-1.5726 0.3043-2.0709 0.8517l0.13682-0.7599h-1.799l-1.5726 7.9254h1.875l0.96622-4.8076c0.24155-1.2461 1.0591-1.5198 1.603-1.5198 0.48311 0 0.9375 0.3043 0.9375 0.9877 0 0.153-0.030405 0.3349-0.060811 0.5185l-0.96791 4.8212h1.875l0.98311-4.9436c0.059122-0.2584 0.10473-0.5933 0.10473-0.8823zm8.299-2.0995h-1.8125l-0.15203 0.8058c-0.36318-0.5933-0.96791-0.8976-1.7838-0.8976-0.71115 0-1.4206 0.1972-2.0101 0.7922-0.60473 0.6069-0.90709 1.5198-1.1791 3.0413-0.12162 0.6698-0.19764 1.2325-0.19764 1.6133 0 1.4909 1.0135 2.2372 2.1774 2.2372 0.78547 0 1.3463-0.3043 1.7534-0.7922l-0.16554 0.8075c-0.21284 1.0183-0.87669 1.7187-1.9206 1.7187-0.73986 0-1.0726-0.3502-1.3142-0.6239l-1.3007 1.1407c0.66554 0.7616 1.4662 1.0812 2.6149 1.0812 1.8142 0 3.326-0.9894 3.7804-3.3031l1.5101-7.6211zm-2.4628 2.6469c0 0.2431-0.045608 0.6086-0.13682 1.0948-0.27196 1.4314-0.69426 2.1607-1.6622 2.1607-0.69595 0-0.9375-0.4556-0.9375-1.0489 0-0.2431 0.045608-0.6086 0.13514-1.0965 0.27365-1.4297 0.69595-2.159 1.6639-2.159 0.63514 0 0.9375 0.3944 0.9375 1.0489zm15.177-2.6928c0-1.6881-1.0591-2.8594-2.8885-2.8594h-3.8243l-2.1622 10.831h1.9966l0.83108-4.199h2.0709c2.5845 0 3.9764-1.8394 3.9764-3.7723zm-2.0118 0.1666c0 0.8228-0.58953 1.8258-1.8885 1.8258h-1.7838l0.61993-3.0719h1.8446c0.89189 0 1.2078 0.5627 1.2078 1.2461zm5.897-3.026h-1.875l-1.6791 8.4575c-0.043919 0.2142-0.059122 0.4114-0.059122 0.6545 0 1.0812 0.80068 1.7187 1.8885 1.7187h1.0287l0.31757-1.5963h-0.77196c-0.40709 0-0.57432-0.1683-0.57432-0.4573 0-0.1207 0.015203-0.1972 0.045608-0.3349l1.6791-8.4422zm7.4814 5.0201c0-1.6898-1.4814-2.2066-2.7956-2.2066-1.4662 0-2.2838 0.4114-2.9172 1.0659l0.96622 1.2614c0.39358-0.4403 0.9223-0.7446 1.6943-0.7446 0.78547 0 1.1639 0.3196 1.1639 0.8517 0 0.153-0.015203 0.2584-0.045608 0.4114l-0.10642 0.4709h-1.8733c-0.90709 0-1.7095 0.2431-2.299 0.8211-0.4527 0.4573-0.70946 1.0965-0.70946 1.8717 0 1.2019 0.87669 2.0842 2.2517 2.0842 0.86149 0 1.4662-0.3349 1.9054-0.7752l-0.13682 0.6987h1.799l1.0287-5.1119c0.045608-0.2125 0.074324-0.4862 0.074324-0.6987zm-2.2973 2.4038l-0.091216 0.4709c-0.074324 0.3961-0.22635 0.7616-0.46791 1.0047-0.28716 0.289-0.71115 0.4862-1.2247 0.4862-0.68074 0-0.99831-0.3043-0.99831-0.7446 0-0.7004 0.5-1.2172 1.3463-1.2172h1.4358zm9.7652-3.6363c-0.67905-0.7004-1.4966-0.9741-2.6149-0.9741-1.1182 0-2.0253 0.3196-2.6149 0.9129-0.52872 0.5321-0.80068 1.2478-0.80068 1.9788 0 0.7446 0.4527 1.5504 1.8885 1.7952l1.0287 0.1666c0.4527 0.0765 0.73986 0.2278 0.73986 0.6545 0 0.4709-0.52872 0.9894-1.6014 0.9894-0.89189 0-1.4223-0.3043-1.8142-0.7616l-1.3463 1.1866c0.69595 0.7616 1.6334 1.1866 3.0389 1.1866 1.0135 0 2.1014-0.2431 2.7365-0.867 0.51351-0.5015 0.84628-1.1254 0.84628-1.9176 0-1.0948-0.49831-1.8241-1.9054-2.0536l-1.0118-0.1666c-0.4848-0.0765-0.72635-0.2584-0.72635-0.5933 0-0.4879 0.42399-0.9588 1.3767-0.9588 0.55912 0 1.1334 0.1819 1.4966 0.5627l1.2838-1.1407zm5.3209-0.6392h-1.299l0.4679-2.3732h-1.8733l-0.46959 2.3732h-0.80068l-0.28716 1.4297h0.80068l-0.77027 3.8794c-0.030405 0.1683-0.060811 0.3808-0.060811 0.6545 0 1.0812 0.81588 1.7187 1.9037 1.7187h0.96791l0.31757-1.581h-0.68074c-0.40709 0-0.60473-0.1683-0.60473-0.4879 0-0.0748 0-0.136 0.030406-0.289l0.77196-3.8947h1.299l0.28716-1.4297zm3.5389 0h-1.875l-1.527 7.6823h1.875l1.527-7.6823zm0.63345-3.1195h-1.9341l-0.30236 1.5674h1.9189l0.31757-1.5674zm6.576 3.8811c-0.46791-0.6086-1.1639-1.0965-2.3125-1.0965-1.603 0-3.4155 0.8211-4.0068 4.0477-0.074324 0.4097-0.11993 0.8517-0.11993 1.2325 0 1.87 1.3294 2.8288 2.826 2.8288 1.0135 0 1.9358-0.3808 2.6014-1.003l-1.0439-1.3549c-0.4375 0.442-0.84628 0.6698-1.375 0.6698-0.72635 0-1.1182-0.5168-1.1182-1.3549 0-0.3638 0.043919-0.6681 0.10473-1.0183 0.13682-0.7463 0.42399-1.4314 0.83108-1.8564 0.33277-0.3502 0.71115-0.5015 1.1199-0.5015 0.4679 0 0.78547 0.2431 1.0878 0.6528l1.4054-1.2461zm6.7128-0.1224c-0.68074-0.7004-1.4966-0.9741-2.6149-0.9741-1.1199 0-2.027 0.3196-2.6166 0.9129-0.52872 0.5321-0.80068 1.2478-0.80068 1.9788 0 0.7446 0.45439 1.5504 1.8902 1.7952l1.027 0.1666c0.45439 0.0765 0.74155 0.2278 0.74155 0.6545 0 0.4709-0.52872 0.9894-1.603 0.9894-0.89189 0-1.4206-0.3043-1.8142-0.7616l-1.3446 1.1866c0.69426 0.7616 1.6318 1.1866 3.0389 1.1866 1.0118 0 2.1014-0.2431 2.7348-0.867 0.5152-0.5015 0.84797-1.1254 0.84797-1.9176 0-1.0948-0.5-1.8241-1.9054-2.0536l-1.0135-0.1666c-0.48311-0.0765-0.72466-0.2584-0.72466-0.5933 0-0.4879 0.4223-0.9588 1.375-0.9588 0.55912 0 1.1334 0.1819 1.4966 0.5627l1.2855-1.1407z" fill="#FF8300" mask="url(#c)"/>
            </g>
            <g transform="translate(32 85.425)" fill="#FEFEFE">
                <path d="m176.15 0.0189c-1.314 0-2.425 1.066-2.476 2.381s0.975 2.384 2.29 2.384c1.314 0 2.423-1.069 2.474-2.384s-0.974-2.381-2.288-2.381"/>
                <polygon points="177.12 7.0779 173.86 23.297 169.88 23.297 173.14 7.0779"/>
                <path d="m168.23 16.435c0.286-1.316 0.528-2.786 0.531-3.908-3e-3 -3.627-2.363-6.019-5.918-6.019-5.75 0-8.524 5.663-8.52 11.279-4e-3 4.396 3.241 5.92 6.497 5.92 2.505 0 4.359-0.487 5.703-1.061l0.732-3.653c-0.755 0.425-2.67 1.346-5.823 1.346-2.452 0-3.323-1.201-3.325-2.841-2e-3 -0.376 0.053-0.683 0.11-1.066l10.013 3e-3zm-5.615-6.652c1.444 0 2.358 1.012 2.36 2.744 0 0.316-0.025 0.683-0.078 1.012h-6.121c0.749-2.616 2.162-3.756 3.839-3.756z"/>
                <path d="m136.67 7.2634h1.877l0.412-2.055c0.585-2.917 2.372-4.588 5.454-4.588h2.329l-0.675 3.37h-1.377c-0.963 0-1.605 0.513-1.832 1.636l-0.328 1.637h5.434l0.412-2.055c0.585-2.917 2.372-4.588 5.454-4.588h2.332l-0.678 3.37h-1.374c-0.965 0-1.608 0.513-1.834 1.636l-0.329 1.637h2.95l-0.612 3.047h-2.949l-2.607 12.987h-3.982l2.605-12.987h-5.434l-2.607 12.987h-3.983l2.607-12.987h-1.877l0.612-3.047z"/>
                <path d="m127.5 6.5562c-2.566 0-4.44 0.416-5.054 0.625l-0.725 3.599c1.02-0.43 2.942-0.886 5.073-0.886 1.779 0 2.617 0.674 2.617 1.796 0 0.321-0.041 0.578-0.098 0.867l-0.102 0.516h-4.157c-3.532 0-6.492 2.368-6.492 6.159 2e-3 2.534 2.044 4.394 4.965 4.394 1.827 0 3.11-0.704 4.042-1.638l-0.257 1.309h3.819l2.131-10.612c0.092-0.449 0.159-1.025 0.159-1.475 0-3.563-3.129-4.654-5.921-4.654zm0.867 10.719c-0.157 0.832-0.475 1.603-0.993 2.117-0.608 0.61-1.506 1.026-2.597 1.026-1.473 0-2.299-0.973-2.299-1.901 0-1.485 1.108-2.657 2.95-2.657h3.222l-0.283 1.415z"/>
                <polygon points="99.85 0.6207 103.75 0.6207 106.99 12.814 115.27 0.6207 119.33 0.6207 114.77 23.298 110.62 23.298 113.29 9.9817 107.57 18.397 104.71 18.397 102.14 9.8917 99.452 23.298 95.297 23.298"/>
                <path d="m91.165 7.5231l-0.671 3.345c-0.514-0.275-2.071-1.037-4.389-1.037-2.021 0-3.001 0.992-3.001 2.022 0 0.704 0.516 1.089 1.538 1.251l2.152 0.353c2.986 0.481 4.045 2.021 4.049 4.33 2e-3 1.668-0.708 2.984-1.801 4.04-1.347 1.317-3.495 1.83-5.647 1.83-2.141 0-4.544-0.875-5.639-1.555l0.748-3.728c0.886 0.753 2.992 1.886 5.149 1.886 2.277 0 3.239-1.092 3.237-2.087 0-0.898-0.608-1.218-1.569-1.377l-2.184-0.355c-3.049-0.514-4.012-2.211-4.013-3.786-1e-3 -1.543 0.581-3.05 1.703-4.172 1.251-1.251 3.174-1.927 5.55-1.927 1.731 0 3.682 0.414 4.788 0.967"/>
                <path d="m76.525 7.5231l-0.671 3.345c-0.514-0.275-2.071-1.037-4.388-1.037-2.022 0-3.003 0.992-3.003 2.022 0 0.704 0.517 1.089 1.539 1.251l2.152 0.353c2.985 0.481 4.044 2.021 4.047 4.33 2e-3 1.668-0.708 2.984-1.8 4.04-1.347 1.317-3.495 1.83-5.647 1.83-2.141 0-4.544-0.875-5.638-1.555l0.747-3.728c0.887 0.753 2.992 1.886 5.15 1.886 2.277 0 3.239-1.092 3.237-2.087-1e-3 -0.898-0.608-1.218-1.57-1.377l-2.184-0.355c-3.048-0.514-4.011-2.211-4.012-3.786-2e-3 -1.543 0.581-3.05 1.703-4.172 1.25-1.251 3.174-1.927 5.55-1.927 1.731 0 3.682 0.414 4.788 0.967"/>
                <path d="m62.393 6.9162l-3.236 16.381h-3.82l0.255-1.434c-1.089 1.119-2.845 1.794-4.578 1.794-1.958 0-4.266-1.314-4.269-4.653 2e-3 -0.673 0.097-1.283 0.193-1.827l2.051-10.261h3.981l-1.988 10.006c-0.064 0.353-0.13 0.769-0.13 1.089 2e-3 1.444 0.998 2.086 1.992 2.086 1.123 0 3.07-0.577 3.583-3.208l1.984-9.973h3.982z"/>
                <path d="m38.602 6.5562c-2.566 0-4.441 0.416-5.055 0.625l-0.723 3.599c1.02-0.43 2.941-0.886 5.072-0.886 1.778 0 2.617 0.674 2.616 1.796 2e-3 0.321-0.039 0.578-0.097 0.867l-0.102 0.516h-4.156c-3.533 0-6.493 2.368-6.493 6.159 2e-3 2.534 2.044 4.394 4.964 4.394 1.828 0 3.111-0.704 4.042-1.638l-0.256 1.309h3.819l2.132-10.612c0.09-0.449 0.158-1.025 0.158-1.475 0-3.563-3.13-4.654-5.921-4.654zm0.867 10.719c-0.158 0.832-0.476 1.603-0.992 2.117-0.609 0.61-1.506 1.026-2.599 1.026-1.472 0-2.298-0.973-2.298-1.901 0-1.485 1.108-2.657 2.95-2.657h3.223l-0.284 1.415z"/>
                <path d="m30.476 6.5562c0.178 0 0.406 0.018 0.542 0.041l-0.791 3.922c-0.483-0.21-1.016-0.289-1.45-0.289-1.573 0-2.985 1.205-3.37 3.13l-1.984 9.937h-3.981l3.266-16.381h3.852l-0.32 1.473c0.932-1.126 2.503-1.833 4.236-1.833"/>
                <polygon points="7.6875 10.283 17.01 0.6208 22.432 0.6208 13.238 9.6788 18.404 23.297 13.622 23.297 9.9945 12.874 6.4705 16.349 5.0755 23.297 0.8265 23.297 5.3785 0.6208 9.6265 0.6208"/>
            </g>
        </g>
    </g>
</svg>
